{
  "accessors": [
    {
      "bufferView": 1,
      "componentType": 5126,
      "type": "VEC3",
      "count": 13745,
      "min": [-16, -16, 0],
      "max": [29, 29, 45]
    },
    {
      "bufferView": 1,
      "componentType": 5126,
      "type": "VEC3",
      "byteOffset": 12,
      "count": 13745
    },
    {
      "bufferView": 1,
      "componentType": 5126,
      "type": "VEC2",
      "byteOffset": 24,
      "count": 13745
    },
    {
      "bufferView": 2,
      "componentType": 5125,
      "type": "SCALAR",
      "count": 73572
    },
    {
      "bufferView": 3,
      "componentType": 5126,
      "type": "VEC3",
      "count": 2130,
      "min": [-6, 13, 1],
      "max": [15, 26, 15]
    },
    {
      "bufferView": 3,
      "componentType": 5126,
      "type": "VEC3",
      "byteOffset": 12,
      "count": 2130
    },
    {
      "bufferView": 3,
      "componentType": 5126,
      "type": "VEC2",
      "byteOffset": 24,
      "count": 2130
    },
    {
      "bufferView": 4,
      "componentType": 5125,
      "type": "SCALAR",
      "count": 6096
    },
    {
      "bufferView": 5,
      "componentType": 5126,
      "type": "VEC3",
      "count": 16242,
      "min": [29, -16, 0],
      "max": [74, 29, 45]
    },
    {
      "bufferView": 5,
      "componentType": 5126,
      "type": "VEC3",
      "byteOffset": 12,
      "count": 16242
    },
    {
      "bufferView": 5,
      "componentType": 5126,
      "type": "VEC2",
      "byteOffset": 24,
      "count": 16242
    },
    {
      "bufferView": 6,
      "componentType": 5125,
      "type": "SCALAR",
      "count": 89940
    },
    {
      "bufferView": 7,
      "componentType": 5126,
      "type": "VEC3",
      "count": 11107,
      "min": [32, -16, 0],
      "max": [35, 28, 45]
    },
    {
      "bufferView": 7,
      "componentType": 5126,
      "type": "VEC3",
      "byteOffset": 12,
      "count": 11107
    },
    {
      "bufferView": 7,
      "componentType": 5126,
      "type": "VEC2",
      "byteOffset": 24,
      "count": 11107
    },
    {
      "bufferView": 8,
      "componentType": 5125,
      "type": "SCALAR",
      "count": 40356
    },
    {
      "bufferView": 9,
      "componentType": 5126,
      "type": "VEC3",
      "count": 4344,
      "min": [-16, -16, 1],
      "max": [32, -15, 45]
    },
    {
      "bufferView": 9,
      "componentType": 5126,
      "type": "VEC3",
      "byteOffset": 12,
      "count": 4344
    },
    {
      "bufferView": 9,
      "componentType": 5126,
      "type": "VEC2",
      "byteOffset": 24,
      "count": 4344
    },
    {
      "bufferView": 10,
      "componentType": 5125,
      "type": "SCALAR",
      "count": 23148
    },
    {
      "bufferView": 11,
      "componentType": 5126,
      "type": "VEC3",
      "count": 24,
      "min": [72, 14, 14],
      "max": [73, 15, 15]
    },
    {
      "bufferView": 11,
      "componentType": 5126,
      "type": "VEC3",
      "byteOffset": 12,
      "count": 24
    },
    {
      "bufferView": 11,
      "componentType": 5126,
      "type": "VEC2",
      "byteOffset": 24,
      "count": 24
    },
    {
      "bufferView": 12,
      "componentType": 5125,
      "type": "SCALAR",
      "count": 36
    },
    {
      "bufferView": 13,
      "componentType": 5126,
      "type": "VEC3",
      "count": 62,
      "min": [32, 21, 29],
      "max": [34, 22, 33]
    },
    {
      "bufferView": 13,
      "componentType": 5126,
      "type": "VEC3",
      "byteOffset": 12,
      "count": 62
    },
    {
      "bufferView": 13,
      "componentType": 5126,
      "type": "VEC2",
      "byteOffset": 24,
      "count": 62
    },
    {
      "bufferView": 14,
      "componentType": 5125,
      "type": "SCALAR",
      "count": 168
    },
    {
      "bufferView": 15,
      "componentType": 5126,
      "type": "VEC3",
      "count": 52,
      "min": [10, 15, 12],
      "max": [12, 18, 13]
    },
    {
      "bufferView": 15,
      "componentType": 5126,
      "type": "VEC3",
      "byteOffset": 12,
      "count": 52
    },
    {
      "bufferView": 15,
      "componentType": 5126,
      "type": "VEC2",
      "byteOffset": 24,
      "count": 52
    },
    {
      "bufferView": 16,
      "componentType": 5125,
      "type": "SCALAR",
      "count": 132
    },
    {
      "bufferView": 17,
      "componentType": 5126,
      "type": "VEC3",
      "count": 48,
      "min": [-15, -10, 12],
      "max": [-14, -9, 16]
    },
    {
      "bufferView": 17,
      "componentType": 5126,
      "type": "VEC3",
      "byteOffset": 12,
      "count": 48
    },
    {
      "bufferView": 17,
      "componentType": 5126,
      "type": "VEC2",
      "byteOffset": 24,
      "count": 48
    },
    {
      "bufferView": 18,
      "componentType": 5125,
      "type": "SCALAR",
      "count": 108
    },
    {
      "bufferView": 19,
      "componentType": 5126,
      "type": "VEC3",
      "count": 966,
      "min": [72, 0, 1],
      "max": [74, 12, 25]
    },
    {
      "bufferView": 19,
      "componentType": 5126,
      "type": "VEC3",
      "byteOffset": 12,
      "count": 966
    },
    {
      "bufferView": 19,
      "componentType": 5126,
      "type": "VEC2",
      "byteOffset": 24,
      "count": 966
    },
    {
      "bufferView": 20,
      "componentType": 5125,
      "type": "SCALAR",
      "count": 3912
    }
  ],
  "asset": {
    "generator": "goxel",
    "version": "2.0"
  },
  "bufferViews": [
    {
      "buffer": 0,
      "byteLength": 641
    },
    {
      "buffer": 1,
      "byteLength": 549800,
      "byteStride": 40
    },
    {
      "buffer": 2,
      "byteLength": 294288
    },
    {
      "buffer": 3,
      "byteLength": 85200,
      "byteStride": 40
    },
    {
      "buffer": 4,
      "byteLength": 24384
    },
    {
      "buffer": 5,
      "byteLength": 649680,
      "byteStride": 40
    },
    {
      "buffer": 6,
      "byteLength": 359760
    },
    {
      "buffer": 7,
      "byteLength": 444280,
      "byteStride": 40
    },
    {
      "buffer": 8,
      "byteLength": 161424
    },
    {
      "buffer": 9,
      "byteLength": 173760,
      "byteStride": 40
    },
    {
      "buffer": 10,
      "byteLength": 92592
    },
    {
      "buffer": 11,
      "byteLength": 960,
      "byteStride": 40
    },
    {
      "buffer": 12,
      "byteLength": 144
    },
    {
      "buffer": 13,
      "byteLength": 2480,
      "byteStride": 40
    },
    {
      "buffer": 14,
      "byteLength": 672
    },
    {
      "buffer": 15,
      "byteLength": 2080,
      "byteStride": 40
    },
    {
      "buffer": 16,
      "byteLength": 528
    },
    {
      "buffer": 17,
      "byteLength": 1920,
      "byteStride": 40
    },
    {
      "buffer": 18,
      "byteLength": 432
    },
    {
      "buffer": 19,
      "byteLength": 38640,
      "byteStride": 40
    },
    {
      "buffer": 20,
      "byteLength": 15648
    }
  ],
  "buffers": [
    {
      "uri": "data:application/octet-stream;base64,",
      "byteLength": 641
    },
    {
      "uri": "data:application/octet-stream;base64,",
      "byteLength": 549800
    },
    {
      "uri": "data:application/octet-stream;base64,",
      "byteLength": 294288
    },
    {
      "uri": "data:application/octet-stream;base64,",
      "byteLength": 85200
    },
    {
      "uri": "data:application/octet-stream;base64,",
      "byteLength": 24384
    },
    {
      "uri": "data:application/octet-stream;base64,",
      "byteLength": 649680
    },
    {
      "uri": "data:application/octet-stream;base64,",
      "byteLength": 359760
    },
    {
      "uri": "data:application/octet-stream;base64,",
      "byteLength": 444280
    },
    {
      "uri": "data:application/octet-stream;base64,",
      "byteLength": 161424
    },
    {
      "uri": "data:application/octet-stream;base64,",
      "byteLength": 173760
    },
    {
      "uri": "data:application/octet-stream;base64,",
      "byteLength": 92592
    },
    {
      "uri": "data:application/octet-stream;base64,",
      "byteLength": 960
    },
    {
      "uri": "data:application/octet-stream;base64,",
      "byteLength": 144
    },
    {
      "uri": "data:application/octet-stream;base64,",
      "byteLength": 2480
    },
    {
      "uri": "data:application/octet-stream;base64,",
      "byteLength": 672
    },
    {
      "uri": "data:application/octet-stream;base64,",
      "byteLength": 2080
    },
    {
      "uri": "data:application/octet-stream;base64,",
      "byteLength": 528
    },
    {
      "uri": "data:application/octet-stream;base64,",
      "byteLength": 1920
    },
    {
      "uri": "data:application/octet-stream;base64,",
      "byteLength": 432
    },
    {
      "uri": "data:application/octet-stream;base64,",
      "byteLength": 38640
    },
    {
      "uri": "data:application/octet-stream;base64,",
      "byteLength": 15648
    }
  ],
  "images": [
    {
      "bufferView": 0,
      "mimeType": "image/png"
    }
  ],
  "meshes": [
    {
      "primitives": [
        {
          "indices": 3,
          "material": 0,
          "attributes": {
            "POSITION": 0,
            "NORMAL": 1,
            "TEXCOORD_0": 2
          }
        }
      ]
    },
    {
      "primitives": [
        {
          "indices": 7,
          "material": 0,
          "attributes": {
            "POSITION": 4,
            "NORMAL": 5,
            "TEXCOORD_0": 6
          }
        }
      ]
    },
    {
      "primitives": [
        {
          "indices": 11,
          "material": 0,
          "attributes": {
            "POSITION": 8,
            "NORMAL": 9,
            "TEXCOORD_0": 10
          }
        }
      ]
    },
    {
      "primitives": [
        {
          "indices": 15,
          "material": 0,
          "attributes": {
            "POSITION": 12,
            "NORMAL": 13,
            "TEXCOORD_0": 14
          }
        }
      ]
    },
    {
      "primitives": [
        {
          "indices": 19,
          "material": 0,
          "attributes": {
            "POSITION": 16,
            "NORMAL": 17,
            "TEXCOORD_0": 18
          }
        }
      ]
    },
    {
      "primitives": [
        {
          "indices": 23,
          "material": 0,
          "attributes": {
            "POSITION": 20,
            "NORMAL": 21,
            "TEXCOORD_0": 22
          }
        }
      ]
    },
    {
      "primitives": [
        {
          "indices": 27,
          "material": 0,
          "attributes": {
            "POSITION": 24,
            "NORMAL": 25,
            "TEXCOORD_0": 26
          }
        }
      ]
    },
    {
      "primitives": [
        {
          "indices": 31,
          "material": 0,
          "attributes": {
            "POSITION": 28,
            "NORMAL": 29,
            "TEXCOORD_0": 30
          }
        }
      ]
    },
    {
      "primitives": [
        {
          "indices": 35,
          "material": 0,
          "attributes": {
            "POSITION": 32,
            "NORMAL": 33,
            "TEXCOORD_0": 34
          }
        }
      ]
    },
    {
      "primitives": [
        {
          "indices": 39,
          "material": 0,
          "attributes": {
            "POSITION": 36,
            "NORMAL": 37,
            "TEXCOORD_0": 38
          }
        }
      ]
    }
  ],
  "materials": [
    {
      "name": "Material.1",
      "pbrMetallicRoughness": {
        "baseColorTexture": {
          "index": 0
        },
        "metallicFactor": 0.200000003,
        "roughnessFactor": 0.5
      }
    }
  ],
  "nodes": [
    {
      "children": [ 1, 2, 3, 4, 5, 6, 7, 8, 9, 10 ],
      "matrix": [1, 0, 0, 0, 0, 0, -1, 0, 0, 1, 0, 0, 0, 0, 0, 1]
    },
    {
      "mesh": 0,
      "name": "base"
    },
    {
      "mesh": 1,
      "name": "desk"
    },
    {
      "mesh": 2,
      "name": "side room"
    },
    {
      "mesh": 3,
      "name": "bookshelf"
    },
    {
      "mesh": 4,
      "name": "doorway"
    },
    {
      "mesh": 5,
      "name": "button"
    },
    {
      "mesh": 6,
      "name": "magic book"
    },
    {
      "mesh": 7,
      "name": "instructions letter"
    },
    {
      "mesh": 8,
      "name": "chalk"
    },
    {
      "mesh": 9,
      "name": "exit door"
    }
  ],
  "scenes": [
    {
      "nodes": [ 0 ]
    }
  ],
  "textures": [
    {
      "source": 0
    }
  ]
}
