{
  "accessors": [
    {
      "bufferView": 1,
      "componentType": 5126,
      "type": "VEC3",
      "count": 20796,
      "min": [0, 0, 1],
      "max": [64, 64, 32]
    },
    {
      "bufferView": 1,
      "componentType": 5126,
      "type": "VEC3",
      "byteOffset": 12,
      "count": 20796
    },
    {
      "bufferView": 1,
      "componentType": 5126,
      "type": "VEC2",
      "byteOffset": 24,
      "count": 20796
    },
    {
      "bufferView": 2,
      "componentType": 5125,
      "type": "SCALAR",
      "count": 99720
    },
    {
      "bufferView": 3,
      "componentType": 5126,
      "type": "VEC3",
      "count": 1034,
      "min": [1, 27, 6],
      "max": [63, 37, 24]
    },
    {
      "bufferView": 3,
      "componentType": 5126,
      "type": "VEC3",
      "byteOffset": 12,
      "count": 1034
    },
    {
      "bufferView": 3,
      "componentType": 5126,
      "type": "VEC2",
      "byteOffset": 24,
      "count": 1034
    },
    {
      "bufferView": 4,
      "componentType": 5125,
      "type": "SCALAR",
      "count": 4764
    },
    {
      "bufferView": 5,
      "componentType": 5126,
      "type": "VEC3",
      "count": 12402,
      "min": [0, 0, 0],
      "max": [64, 64, 1]
    },
    {
      "bufferView": 5,
      "componentType": 5126,
      "type": "VEC3",
      "byteOffset": 12,
      "count": 12402
    },
    {
      "bufferView": 5,
      "componentType": 5126,
      "type": "VEC2",
      "byteOffset": 24,
      "count": 12402
    },
    {
      "bufferView": 6,
      "componentType": 5125,
      "type": "SCALAR",
      "count": 50688
    }
  ],
  "asset": {
    "generator": "goxel",
    "version": "2.0"
  },
  "bufferViews": [
    {
      "buffer": 0,
      "byteLength": 258
    },
    {
      "buffer": 1,
      "byteLength": 831840,
      "byteStride": 40
    },
    {
      "buffer": 2,
      "byteLength": 398880
    },
    {
      "buffer": 3,
      "byteLength": 41360,
      "byteStride": 40
    },
    {
      "buffer": 4,
      "byteLength": 19056
    },
    {
      "buffer": 5,
      "byteLength": 496080,
      "byteStride": 40
    },
    {
      "buffer": 6,
      "byteLength": 202752
    }
  ],
  "buffers": [
    {
      "uri": "data:application/octet-stream;base64,",
      "byteLength": 258
    },
    {
      "uri": "data:application/octet-stream;base64,",
      "byteLength": 831840
    },
    {
      "uri": "data:application/octet-stream;base64,",
      "byteLength": 398880
    },
    {
      "uri": "data:application/octet-stream;base64,",
      "byteLength": 41360
    },
    {
      "uri": "data:application/octet-stream;base64,",
      "byteLength": 19056
    },
    {
      "uri": "data:application/octet-stream;base64,",
      "byteLength": 496080
    },
    {
      "uri": "data:application/octet-stream;base64,",
      "byteLength": 202752
    }
  ],
  "images": [
    {
      "bufferView": 0,
      "mimeType": "image/png"
    }
  ],
  "meshes": [
    {
      "primitives": [
        {
          "indices": 3,
          "material": 0,
          "attributes": {
            "POSITION": 0,
            "NORMAL": 1,
            "TEXCOORD_0": 2
          }
        }
      ]
    },
    {
      "primitives": [
        {
          "indices": 7,
          "material": 1,
          "attributes": {
            "POSITION": 4,
            "NORMAL": 5,
            "TEXCOORD_0": 6
          }
        }
      ]
    },
    {
      "primitives": [
        {
          "indices": 11,
          "material": 2,
          "attributes": {
            "POSITION": 8,
            "NORMAL": 9,
            "TEXCOORD_0": 10
          }
        }
      ]
    }
  ],
  "materials": [
    {
      "name": "Stone",
      "pbrMetallicRoughness": {
        "baseColorTexture": {
          "index": 0
        },
        "metallicFactor": 0.200000003,
        "baseColorFactor": [1, 0.982250571, 0.982250571, 1]
      }
    },
    {
      "name": "Glass",
      "pbrMetallicRoughness": {
        "baseColorTexture": {
          "index": 0
        },
        "metallicFactor": 0,
        "baseColorFactor": [1, 1, 1, 0.5]
      }
    },
    {
      "name": "Wood",
      "pbrMetallicRoughness": {
        "baseColorTexture": {
          "index": 0
        },
        "metallicFactor": 0.200000003,
        "roughnessFactor": 0.800000012
      }
    }
  ],
  "nodes": [
    {
      "children": [ 1, 2, 3 ],
      "matrix": [1, 0, 0, 0, 0, 0, -1, 0, 0, 1, 0, 0, 0, 0, 0, 1]
    },
    {
      "mesh": 0,
      "name": "Stone"
    },
    {
      "mesh": 1,
      "name": "Glass"
    },
    {
      "mesh": 2,
      "name": "Wood"
    }
  ],
  "scenes": [
    {
      "nodes": [ 0 ]
    }
  ],
  "textures": [
    {
      "source": 0
    }
  ]
}
