{
  "accessors": [
    {
      "bufferView": 1,
      "componentType": 5126,
      "type": "VEC3",
      "count": 2558,
      "min": [-16, -16, 0],
      "max": [16, 16, 1]
    },
    {
      "bufferView": 1,
      "componentType": 5126,
      "type": "VEC3",
      "byteOffset": 12,
      "count": 2558
    },
    {
      "bufferView": 1,
      "componentType": 5126,
      "type": "VEC2",
      "byteOffset": 24,
      "count": 2558
    },
    {
      "bufferView": 2,
      "componentType": 5125,
      "type": "SCALAR",
      "count": 13044
    },
    {
      "bufferView": 3,
      "componentType": 5126,
      "type": "VEC3",
      "count": 14251,
      "min": [-16, -16, 1],
      "max": [16, 16, 52]
    },
    {
      "bufferView": 3,
      "componentType": 5126,
      "type": "VEC3",
      "byteOffset": 12,
      "count": 14251
    },
    {
      "bufferView": 3,
      "componentType": 5126,
      "type": "VEC2",
      "byteOffset": 24,
      "count": 14251
    },
    {
      "bufferView": 4,
      "componentType": 5125,
      "type": "SCALAR",
      "count": 64632
    },
    {
      "bufferView": 5,
      "componentType": 5126,
      "type": "VEC3",
      "count": 1144,
      "min": [-2, -16, 0],
      "max": [16, 16, 29]
    },
    {
      "bufferView": 5,
      "componentType": 5126,
      "type": "VEC3",
      "byteOffset": 12,
      "count": 1144
    },
    {
      "bufferView": 5,
      "componentType": 5126,
      "type": "VEC2",
      "byteOffset": 24,
      "count": 1144
    },
    {
      "bufferView": 6,
      "componentType": 5125,
      "type": "SCALAR",
      "count": 3144
    },
    {
      "bufferView": 7,
      "componentType": 5126,
      "type": "VEC3",
      "count": 220,
      "min": [-2, 6, 0],
      "max": [15, 15, 1]
    },
    {
      "bufferView": 7,
      "componentType": 5126,
      "type": "VEC3",
      "byteOffset": 12,
      "count": 220
    },
    {
      "bufferView": 7,
      "componentType": 5126,
      "type": "VEC2",
      "byteOffset": 24,
      "count": 220
    },
    {
      "bufferView": 8,
      "componentType": 5125,
      "type": "SCALAR",
      "count": 612
    },
    {
      "bufferView": 9,
      "componentType": 5126,
      "type": "VEC3",
      "count": 452,
      "min": [-8, -16, 8],
      "max": [8, -15, 18]
    },
    {
      "bufferView": 9,
      "componentType": 5126,
      "type": "VEC3",
      "byteOffset": 12,
      "count": 452
    },
    {
      "bufferView": 9,
      "componentType": 5126,
      "type": "VEC2",
      "byteOffset": 24,
      "count": 452
    },
    {
      "bufferView": 10,
      "componentType": 5125,
      "type": "SCALAR",
      "count": 1824
    },
    {
      "bufferView": 11,
      "componentType": 5126,
      "type": "VEC3",
      "count": 1989,
      "min": [-14, -14, 1],
      "max": [4, -2, 13]
    },
    {
      "bufferView": 11,
      "componentType": 5126,
      "type": "VEC3",
      "byteOffset": 12,
      "count": 1989
    },
    {
      "bufferView": 11,
      "componentType": 5126,
      "type": "VEC2",
      "byteOffset": 24,
      "count": 1989
    },
    {
      "bufferView": 12,
      "componentType": 5125,
      "type": "SCALAR",
      "count": 6216
    },
    {
      "bufferView": 13,
      "componentType": 5126,
      "type": "VEC3",
      "count": 637,
      "min": [9, -13, 1],
      "max": [15, -2, 9]
    },
    {
      "bufferView": 13,
      "componentType": 5126,
      "type": "VEC3",
      "byteOffset": 12,
      "count": 637
    },
    {
      "bufferView": 13,
      "componentType": 5126,
      "type": "VEC2",
      "byteOffset": 24,
      "count": 637
    },
    {
      "bufferView": 14,
      "componentType": 5125,
      "type": "SCALAR",
      "count": 2532
    },
    {
      "bufferView": 15,
      "componentType": 5126,
      "type": "VEC3",
      "count": 1073,
      "min": [-15, 8, 1],
      "max": [-11, 15, 19]
    },
    {
      "bufferView": 15,
      "componentType": 5126,
      "type": "VEC3",
      "byteOffset": 12,
      "count": 1073
    },
    {
      "bufferView": 15,
      "componentType": 5126,
      "type": "VEC2",
      "byteOffset": 24,
      "count": 1073
    },
    {
      "bufferView": 16,
      "componentType": 5125,
      "type": "SCALAR",
      "count": 3468
    },
    {
      "bufferView": 17,
      "componentType": 5126,
      "type": "VEC3",
      "count": 303,
      "min": [-15, 4, 1],
      "max": [-11, 8, 8]
    },
    {
      "bufferView": 17,
      "componentType": 5126,
      "type": "VEC3",
      "byteOffset": 12,
      "count": 303
    },
    {
      "bufferView": 17,
      "componentType": 5126,
      "type": "VEC2",
      "byteOffset": 24,
      "count": 303
    },
    {
      "bufferView": 18,
      "componentType": 5125,
      "type": "SCALAR",
      "count": 744
    },
    {
      "bufferView": 19,
      "componentType": 5126,
      "type": "VEC3",
      "count": 400,
      "min": [-5, 14, 7],
      "max": [2, 15, 26]
    },
    {
      "bufferView": 19,
      "componentType": 5126,
      "type": "VEC3",
      "byteOffset": 12,
      "count": 400
    },
    {
      "bufferView": 19,
      "componentType": 5126,
      "type": "VEC2",
      "byteOffset": 24,
      "count": 400
    },
    {
      "bufferView": 20,
      "componentType": 5125,
      "type": "SCALAR",
      "count": 1152
    },
    {
      "bufferView": 21,
      "componentType": 5126,
      "type": "VEC3",
      "count": 312,
      "min": [-4, 15, 8],
      "max": [1, 16, 25]
    },
    {
      "bufferView": 21,
      "componentType": 5126,
      "type": "VEC3",
      "byteOffset": 12,
      "count": 312
    },
    {
      "bufferView": 21,
      "componentType": 5126,
      "type": "VEC2",
      "byteOffset": 24,
      "count": 312
    },
    {
      "bufferView": 22,
      "componentType": 5125,
      "type": "SCALAR",
      "count": 1284
    },
    {
      "bufferView": 23,
      "componentType": 5126,
      "type": "VEC3",
      "count": 528,
      "min": [-6, 14, 6],
      "max": [3, 15, 27]
    },
    {
      "bufferView": 23,
      "componentType": 5126,
      "type": "VEC3",
      "byteOffset": 12,
      "count": 528
    },
    {
      "bufferView": 23,
      "componentType": 5126,
      "type": "VEC2",
      "byteOffset": 24,
      "count": 528
    },
    {
      "bufferView": 24,
      "componentType": 5125,
      "type": "SCALAR",
      "count": 792
    }
  ],
  "asset": {
    "generator": "goxel",
    "version": "2.0"
  },
  "bufferViews": [
    {
      "buffer": 0,
      "byteLength": 429
    },
    {
      "buffer": 1,
      "byteLength": 102320,
      "byteStride": 40
    },
    {
      "buffer": 2,
      "byteLength": 52176
    },
    {
      "buffer": 3,
      "byteLength": 570040,
      "byteStride": 40
    },
    {
      "buffer": 4,
      "byteLength": 258528
    },
    {
      "buffer": 5,
      "byteLength": 45760,
      "byteStride": 40
    },
    {
      "buffer": 6,
      "byteLength": 12576
    },
    {
      "buffer": 7,
      "byteLength": 8800,
      "byteStride": 40
    },
    {
      "buffer": 8,
      "byteLength": 2448
    },
    {
      "buffer": 9,
      "byteLength": 18080,
      "byteStride": 40
    },
    {
      "buffer": 10,
      "byteLength": 7296
    },
    {
      "buffer": 11,
      "byteLength": 79560,
      "byteStride": 40
    },
    {
      "buffer": 12,
      "byteLength": 24864
    },
    {
      "buffer": 13,
      "byteLength": 25480,
      "byteStride": 40
    },
    {
      "buffer": 14,
      "byteLength": 10128
    },
    {
      "buffer": 15,
      "byteLength": 42920,
      "byteStride": 40
    },
    {
      "buffer": 16,
      "byteLength": 13872
    },
    {
      "buffer": 17,
      "byteLength": 12120,
      "byteStride": 40
    },
    {
      "buffer": 18,
      "byteLength": 2976
    },
    {
      "buffer": 19,
      "byteLength": 16000,
      "byteStride": 40
    },
    {
      "buffer": 20,
      "byteLength": 4608
    },
    {
      "buffer": 21,
      "byteLength": 12480,
      "byteStride": 40
    },
    {
      "buffer": 22,
      "byteLength": 5136
    },
    {
      "buffer": 23,
      "byteLength": 21120,
      "byteStride": 40
    },
    {
      "buffer": 24,
      "byteLength": 3168
    }
  ],
  "buffers": [
    {
      "uri": "data:application/octet-stream;base64,",
      "byteLength": 429
    },
    {
      "uri": "data:application/octet-stream;base64,",
      "byteLength": 102320
    },
    {
      "uri": "data:application/octet-stream;base64,",
      "byteLength": 52176
    },
    {
      "uri": "data:application/octet-stream;base64,",
      "byteLength": 570040
    },
    {
      "uri": "data:application/octet-stream;base64,",
      "byteLength": 258528
    },
    {
      "uri": "data:application/octet-stream;base64,",
      "byteLength": 45760
    },
    {
      "uri": "data:application/octet-stream;base64,",
      "byteLength": 12576
    },
    {
      "uri": "data:application/octet-stream;base64,",
      "byteLength": 8800
    },
    {
      "uri": "data:application/octet-stream;base64,",
      "byteLength": 2448
    },
    {
      "uri": "data:application/octet-stream;base64,",
      "byteLength": 18080
    },
    {
      "uri": "data:application/octet-stream;base64,",
      "byteLength": 7296
    },
    {
      "uri": "data:application/octet-stream;base64,",
      "byteLength": 79560
    },
    {
      "uri": "data:application/octet-stream;base64,",
      "byteLength": 24864
    },
    {
      "uri": "data:application/octet-stream;base64,",
      "byteLength": 25480
    },
    {
      "uri": "data:application/octet-stream;base64,",
      "byteLength": 10128
    },
    {
      "uri": "data:application/octet-stream;base64,",
      "byteLength": 42920
    },
    {
      "uri": "data:application/octet-stream;base64,",
      "byteLength": 13872
    },
    {
      "uri": "data:application/octet-stream;base64,",
      "byteLength": 12120
    },
    {
      "uri": "data:application/octet-stream;base64,",
      "byteLength": 2976
    },
    {
      "uri": "data:application/octet-stream;base64,",
      "byteLength": 16000
    },
    {
      "uri": "data:application/octet-stream;base64,",
      "byteLength": 4608
    },
    {
      "uri": "data:application/octet-stream;base64,",
      "byteLength": 12480
    },
    {
      "uri": "data:application/octet-stream;base64,",
      "byteLength": 5136
    },
    {
      "uri": "data:application/octet-stream;base64,",
      "byteLength": 21120
    },
    {
      "uri": "data:application/octet-stream;base64,",
      "byteLength": 3168
    }
  ],
  "images": [
    {
      "bufferView": 0,
      "mimeType": "image/png"
    }
  ],
  "meshes": [
    {
      "primitives": [
        {
          "indices": 3,
          "material": 0,
          "attributes": {
            "POSITION": 0,
            "NORMAL": 1,
            "TEXCOORD_0": 2
          }
        }
      ]
    },
    {
      "primitives": [
        {
          "indices": 7,
          "material": 0,
          "attributes": {
            "POSITION": 4,
            "NORMAL": 5,
            "TEXCOORD_0": 6
          }
        }
      ]
    },
    {
      "primitives": [
        {
          "indices": 11,
          "material": 0,
          "attributes": {
            "POSITION": 8,
            "NORMAL": 9,
            "TEXCOORD_0": 10
          }
        }
      ]
    },
    {
      "primitives": [
        {
          "indices": 15,
          "material": 1,
          "attributes": {
            "POSITION": 12,
            "NORMAL": 13,
            "TEXCOORD_0": 14
          }
        }
      ]
    },
    {
      "primitives": [
        {
          "indices": 19,
          "material": 0,
          "attributes": {
            "POSITION": 16,
            "NORMAL": 17,
            "TEXCOORD_0": 18
          }
        }
      ]
    },
    {
      "primitives": [
        {
          "indices": 23,
          "material": 0,
          "attributes": {
            "POSITION": 20,
            "NORMAL": 21,
            "TEXCOORD_0": 22
          }
        }
      ]
    },
    {
      "primitives": [
        {
          "indices": 27,
          "material": 0,
          "attributes": {
            "POSITION": 24,
            "NORMAL": 25,
            "TEXCOORD_0": 26
          }
        }
      ]
    },
    {
      "primitives": [
        {
          "indices": 31,
          "material": 0,
          "attributes": {
            "POSITION": 28,
            "NORMAL": 29,
            "TEXCOORD_0": 30
          }
        }
      ]
    },
    {
      "primitives": [
        {
          "indices": 35,
          "material": 0,
          "attributes": {
            "POSITION": 32,
            "NORMAL": 33,
            "TEXCOORD_0": 34
          }
        }
      ]
    },
    {
      "primitives": [
        {
          "indices": 39,
          "material": 0,
          "attributes": {
            "POSITION": 36,
            "NORMAL": 37,
            "TEXCOORD_0": 38
          }
        }
      ]
    },
    {
      "primitives": [
        {
          "indices": 43,
          "material": 0,
          "attributes": {
            "POSITION": 40,
            "NORMAL": 41,
            "TEXCOORD_0": 42
          }
        }
      ]
    },
    {
      "primitives": [
        {
          "indices": 47,
          "material": 0,
          "attributes": {
            "POSITION": 44,
            "NORMAL": 45,
            "TEXCOORD_0": 46
          }
        }
      ]
    }
  ],
  "materials": [
    {
      "name": "Material.1",
      "pbrMetallicRoughness": {
        "baseColorTexture": {
          "index": 0
        },
        "metallicFactor": 0.200000003,
        "roughnessFactor": 0.800000012
      }
    },
    {
      "name": "Wire",
      "pbrMetallicRoughness": {
        "baseColorTexture": {
          "index": 0
        },
        "metallicFactor": 0.200000003,
        "roughnessFactor": 0
      }
    }
  ],
  "nodes": [
    {
      "children": [ 1, 2, 3, 4, 5, 6, 7, 8, 9, 10, 11, 12 ],
      "matrix": [1, 0, 0, 0, 0, 0, -1, 0, 0, 1, 0, 0, 0, 0, 0, 1]
    },
    {
      "mesh": 0,
      "name": "Floor"
    },
    {
      "mesh": 1,
      "name": "Structure One"
    },
    {
      "mesh": 2,
      "name": "Wire"
    },
    {
      "mesh": 3,
      "name": "Wire.1"
    },
    {
      "mesh": 4,
      "name": "Windows"
    },
    {
      "mesh": 5,
      "name": "Bed"
    },
    {
      "mesh": 6,
      "name": "Desk"
    },
    {
      "mesh": 7,
      "name": "Bookshelf"
    },
    {
      "mesh": 8,
      "name": "Bookpile"
    },
    {
      "mesh": 9,
      "name": "Portal Frame"
    },
    {
      "mesh": 10,
      "name": "Portal"
    },
    {
      "mesh": 11,
      "name": "Bulbs"
    }
  ],
  "scenes": [
    {
      "nodes": [ 0 ]
    }
  ],
  "textures": [
    {
      "source": 0
    }
  ]
}
